HIERARCHY
ROOT Hips
{
	OFFSET 0.000000 100.481300 0.000000
	CHANNELS 6 Xposition Yposition Zposition Xrotation Yrotation Zrotation
	JOINT Spine
	{
		OFFSET -0.279200 12.230698 -2.892100
		CHANNELS 3 Xrotation Yrotation Zrotation
		JOINT Spine1
		{
			OFFSET -0.325700 14.269203 -3.374200
			CHANNELS 3 Xrotation Yrotation Zrotation
			JOINT Spine2
			{
				OFFSET -0.372300 16.307602 -0.352600
				CHANNELS 3 Xrotation Yrotation Zrotation
				JOINT Neck
				{
					OFFSET -0.418800 17.814194 8.416900
					CHANNELS 3 Xrotation Yrotation Zrotation
					JOINT Head
					{
						OFFSET 0.000000 7.031097 3.806800
						CHANNELS 3 Xrotation Yrotation Zrotation
						JOINT HeadTop_End
						{
							OFFSET 0.000000 24.646606 12.978600
							CHANNELS 3 Xrotation Yrotation Zrotation
							End Site
							{
								OFFSET 0.000000 27.854965 0.000000
							}
						}
					}
				}
				JOINT LeftShoulder
				{
					OFFSET 16.952999 14.495407 -7.737500
					CHANNELS 3 Xrotation Yrotation Zrotation
					JOINT LeftArm
					{
						OFFSET 9.308998 -2.777710 0.208600
						CHANNELS 3 Xrotation Yrotation Zrotation
						JOINT LeftForeArm
						{
							OFFSET 29.972298 0.000000 0.000000
							CHANNELS 3 Xrotation Yrotation Zrotation
							JOINT LeftHand
							{
								OFFSET 26.026505 0.000000 0.000000
								CHANNELS 3 Xrotation Yrotation Zrotation
								JOINT LeftHandThumb1
								{
									OFFSET 12.240501 -7.147949 9.207150
									CHANNELS 3 Xrotation Yrotation Zrotation
									JOINT LeftHandThumb2
									{
										OFFSET 4.138618 -2.389435 2.389433
										CHANNELS 3 Xrotation Yrotation Zrotation
										JOINT LeftHandThumb3
										{
											OFFSET 2.726913 -1.574387 1.574386
											CHANNELS 3 Xrotation Yrotation Zrotation
											JOINT LeftHandThumb4
											{
												OFFSET 3.941010 -2.275345 2.275342
												CHANNELS 3 Xrotation Yrotation Zrotation
												End Site
												{
													OFFSET -0.005798 5.087799 0.009903
												}
											}
										}
									}
								}
								JOINT LeftHandIndex1
								{
									OFFSET 24.424698 -1.985611 5.953459
									CHANNELS 3 Xrotation Yrotation Zrotation
									JOINT LeftHandIndex2
									{
										OFFSET 6.426697 0.000000 0.000000
										CHANNELS 3 Xrotation Yrotation Zrotation
										JOINT LeftHandIndex3
										{
											OFFSET 5.337898 0.000000 0.000000
											CHANNELS 3 Xrotation Yrotation Zrotation
											JOINT LeftHandIndex4
											{
												OFFSET 4.409401 0.000000 0.000000
												CHANNELS 3 Xrotation Yrotation Zrotation
												End Site
												{
													OFFSET 0.000000 4.409363 0.014373
												}
											}
										}
									}
								}
								JOINT LeftHandMiddle1
								{
									OFFSET 23.810104 0.000000 0.000000
									CHANNELS 3 Xrotation Yrotation Zrotation
									JOINT LeftHandMiddle2
									{
										OFFSET 7.176498 0.000000 0.000000
										CHANNELS 3 Xrotation Yrotation Zrotation
										JOINT LeftHandMiddle3
										{
											OFFSET 6.774902 0.000000 0.000000
											CHANNELS 3 Xrotation Yrotation Zrotation
											JOINT LeftHandMiddle4
											{
												OFFSET 5.403328 0.000000 0.000000
												CHANNELS 3 Xrotation Yrotation Zrotation
												End Site
												{
													OFFSET -0.027702 5.403244 0.017414
												}
											}
										}
									}
								}
								JOINT LeftHandRing1
								{
									OFFSET 22.908401 -0.839279 -6.020567
									CHANNELS 3 Xrotation Yrotation Zrotation
									JOINT LeftHandRing2
									{
										OFFSET 6.337502 0.000000 0.000000
										CHANNELS 3 Xrotation Yrotation Zrotation
										JOINT LeftHandRing3
										{
											OFFSET 5.779297 0.000000 0.000000
											CHANNELS 3 Xrotation Yrotation Zrotation
											JOINT LeftHandRing4
											{
												OFFSET 4.965698 0.000000 0.000000
												CHANNELS 3 Xrotation Yrotation Zrotation
												End Site
												{
													OFFSET 0.000000 4.965668 0.016186
												}
											}
										}
									}
								}
								JOINT LeftHandPinky1
								{
									OFFSET 20.037003 -1.530319 -10.950146
									CHANNELS 3 Xrotation Yrotation Zrotation
									JOINT LeftHandPinky2
									{
										OFFSET 5.254700 0.000000 0.000000
										CHANNELS 3 Xrotation Yrotation Zrotation
										JOINT LeftHandPinky3
										{
											OFFSET 4.810204 0.000000 0.000000
											CHANNELS 3 Xrotation Yrotation Zrotation
											JOINT LeftHandPinky4
											{
												OFFSET 3.647202 0.000000 0.000000
												CHANNELS 3 Xrotation Yrotation Zrotation
												End Site
												{
													OFFSET 0.000000 3.647186 0.011889
												}
											}
										}
									}
								}
							}
						}
					}
				}
				JOINT RightShoulder
				{
					OFFSET -15.141001 14.495407 -7.737500
					CHANNELS 3 Xrotation Yrotation Zrotation
					JOINT RightArm
					{
						OFFSET -9.308998 -2.777710 0.208500
						CHANNELS 3 Xrotation Yrotation Zrotation
						JOINT RightForeArm
						{
							OFFSET -29.972300 0.000000 0.000000
							CHANNELS 3 Xrotation Yrotation Zrotation
							JOINT RightHand
							{
								OFFSET -26.026505 0.000000 0.000000
								CHANNELS 3 Xrotation Yrotation Zrotation
								JOINT RightHandThumb1
								{
									OFFSET -12.240601 -7.148026 9.207092
									CHANNELS 3 Xrotation Yrotation Zrotation
									JOINT RightHandThumb2
									{
										OFFSET -4.138618 -2.389435 2.389433
										CHANNELS 3 Xrotation Yrotation Zrotation
										JOINT RightHandThumb3
										{
											OFFSET -2.726974 -1.574417 1.574421
											CHANNELS 3 Xrotation Yrotation Zrotation
											JOINT RightHandThumb4
											{
												OFFSET -3.941010 -2.275345 2.275343
												CHANNELS 3 Xrotation Yrotation Zrotation
												End Site
												{
													OFFSET 0.005814 5.087799 0.009927
												}
											}
										}
									}
								}
								JOINT RightHandIndex1
								{
									OFFSET -24.424698 -1.985657 5.953444
									CHANNELS 3 Xrotation Yrotation Zrotation
									JOINT RightHandIndex2
									{
										OFFSET -6.426697 0.000000 0.000000
										CHANNELS 3 Xrotation Yrotation Zrotation
										JOINT RightHandIndex3
										{
											OFFSET -5.337898 0.000000 0.000000
											CHANNELS 3 Xrotation Yrotation Zrotation
											JOINT RightHandIndex4
											{
												OFFSET -4.409401 0.000000 0.000000
												CHANNELS 3 Xrotation Yrotation Zrotation
												End Site
												{
													OFFSET 0.000000 4.409363 0.014408
												}
											}
										}
									}
								}
								JOINT RightHandMiddle1
								{
									OFFSET -23.810097 0.000000 0.000000
									CHANNELS 3 Xrotation Yrotation Zrotation
									JOINT RightHandMiddle2
									{
										OFFSET -7.176498 0.000000 0.000000
										CHANNELS 3 Xrotation Yrotation Zrotation
										JOINT RightHandMiddle3
										{
											OFFSET -6.774902 0.000000 0.000000
											CHANNELS 3 Xrotation Yrotation Zrotation
											JOINT RightHandMiddle4
											{
												OFFSET -5.403328 0.000000 0.000000
												CHANNELS 3 Xrotation Yrotation Zrotation
												End Site
												{
													OFFSET 0.027702 5.403244 0.017457
												}
											}
										}
									}
								}
								JOINT RightHandRing1
								{
									OFFSET -22.908302 -0.839325 -6.020576
									CHANNELS 3 Xrotation Yrotation Zrotation
									JOINT RightHandRing2
									{
										OFFSET -6.337502 0.000000 0.000000
										CHANNELS 3 Xrotation Yrotation Zrotation
										JOINT RightHandRing3
										{
											OFFSET -5.779297 0.000000 0.000000
											CHANNELS 3 Xrotation Yrotation Zrotation
											JOINT RightHandRing4
											{
												OFFSET -4.965698 0.000000 0.000000
												CHANNELS 3 Xrotation Yrotation Zrotation
												End Site
												{
													OFFSET 0.000000 4.965668 0.016226
												}
											}
										}
									}
								}
								JOINT RightHandPinky1
								{
									OFFSET -20.037003 -1.530334 -10.950259
									CHANNELS 3 Xrotation Yrotation Zrotation
									JOINT RightHandPinky2
									{
										OFFSET -5.254700 0.000000 0.000000
										CHANNELS 3 Xrotation Yrotation Zrotation
										JOINT RightHandPinky3
										{
											OFFSET -4.810204 0.000000 0.000000
											CHANNELS 3 Xrotation Yrotation Zrotation
											JOINT RightHandPinky4
											{
												OFFSET -3.647202 0.000000 0.000000
												CHANNELS 3 Xrotation Yrotation Zrotation
												End Site
												{
													OFFSET 0.000000 3.647186 0.011917
												}
											}
										}
									}
								}
							}
						}
					}
				}
			}
		}
	}
	JOINT LeftUpLeg
	{
		OFFSET 15.427100 -6.655098 0.678600
		CHANNELS 3 Xrotation Yrotation Zrotation
		JOINT LeftLeg
		{
			OFFSET 4.081073 -39.591068 13.024000
			CHANNELS 3 Xrotation Yrotation Zrotation
			JOINT LeftFoot
			{
				OFFSET -4.081074 -37.707932 -15.979700
				CHANNELS 3 Xrotation Yrotation Zrotation
				JOINT LeftToeBase
				{
					OFFSET 5.346399 -15.068900 20.645000
					CHANNELS 3 Xrotation Yrotation Zrotation
					JOINT LeftToe_End
					{
						OFFSET 2.754700 0.931300 11.300900
						CHANNELS 3 Xrotation Yrotation Zrotation
						End Site
						{
							OFFSET 0.000000 11.669021 0.000000
						}
					}
				}
			}
		}
	}
	JOINT RightUpLeg
	{
		OFFSET -15.569500 -6.655098 0.678600
		CHANNELS 3 Xrotation Yrotation Zrotation
		JOINT RightLeg
		{
			OFFSET -4.081825 -39.591045 13.023800
			CHANNELS 3 Xrotation Yrotation Zrotation
			JOINT RightFoot
			{
				OFFSET 4.081824 -37.707954 -15.979600
				CHANNELS 3 Xrotation Yrotation Zrotation
				JOINT RightToeBase
				{
					OFFSET -5.346400 -15.068900 20.645000
					CHANNELS 3 Xrotation Yrotation Zrotation
					JOINT RightToe_End
					{
						OFFSET -2.754700 0.931300 11.300900
						CHANNELS 3 Xrotation Yrotation Zrotation
						End Site
						{
							OFFSET 0.000000 11.669021 0.000000
						}
					}
				}
			}
		}
	}
}
MOTION
Frames: 4
Frame Time: 0.033333
-16.268703 74.418167 0.277317 3.982487 39.081796 -128.978943 17.648500 24.597176 -2.775758 7.841047 9.756280 -4.662182 7.960120 9.603065 -4.866704 0.474643 -4.115187 6.281023 13.075975 -19.287512 24.109323 -0.000000 0.000000 -0.000001 0.907286 -8.561718 -0.000096 -31.635421 49.185319 -82.074818 0.000012 -104.289653 -0.000009 -46.156318 -19.759515 76.871450 -23.329196 -10.873561 9.745547 4.144132 9.482733 1.784344 -7.692731 -2.715820 12.526805 -0.000003 -0.000000 -0.000001 -2.334836 -15.126256 -8.712649 0.000101 0.034693 -0.338552 0.001952 -0.151410 1.477673 0.000000 0.000000 -0.000000 -0.637560 -4.565641 -5.951137 0.000000 0.001912 -0.018697 0.002589 -0.174368 1.701719 0.000000 0.000002 0.000000 0.595063 7.859576 -5.578013 -0.000000 0.000002 -0.000007 0.005629 -0.257026 2.508951 0.000000 0.000000 -0.000000 1.630365 21.101538 -3.974348 0.000058 0.026010 -0.253786 0.005646 -0.257446 2.513096 0.000000 0.000000 0.000000 -0.965361 16.604330 26.612222 -68.720589 30.970861 84.871295 -0.000060 60.242467 0.000043 -8.603991 20.513684 -44.027509 -4.957103 22.491815 -22.374873 6.358364 -14.447594 -2.112218 -7.845700 8.561202 -11.387872 -0.000002 -0.000000 -0.000000 6.929594 22.348669 -15.505588 -0.000000 -0.000001 0.000007 -0.000000 0.000006 -0.000038 0.000000 -0.000001 -0.000000 3.558506 9.846346 -16.725487 0.000002 -0.000002 0.000005 -0.000001 -0.000007 -0.000046 -0.000000 0.000002 0.000000 0.305684 -0.748088 -17.692707 -0.000001 0.000001 0.000011 -0.000002 -0.000002 -0.000031 0.000000 0.000000 -0.000001 -3.749121 -13.123710 -18.830948 -0.000001 -0.000012 0.000003 0.000001 0.000015 -0.000046 0.000000 0.000000 0.000001 -93.462895 55.683910 9.058782 97.542082 36.765614 16.255987 40.019721 -9.313835 -17.782840 -1.748451 -0.000000 0.000001 0.000004 0.000000 -0.000000 45.263930 -5.361009 23.093078 84.367316 -16.211445 -0.520138 2.859142 2.371465 15.983339 -0.994223 -0.000020 -0.000002 -0.000000 0.000001 -0.000001 
-17.073570 72.945541 1.307274 2.479525 37.999153 -124.784469 18.337680 25.902463 -5.839579 7.214264 9.491200 -4.642666 7.275728 9.369222 -4.857053 0.048942 -4.009453 5.355967 11.806504 -20.078934 23.701036 -0.000000 -0.000000 -0.000001 -2.058646 -8.488932 -0.217219 -27.242314 47.957207 -83.229250 -0.000268 -102.621427 -0.000280 -46.343954 -20.336236 76.088342 -23.363396 -10.919565 9.825364 4.144130 9.482733 1.784343 -7.692733 -2.715815 12.526820 0.000004 0.000001 -0.000000 -2.334837 -15.126251 -8.712652 0.000102 0.034687 -0.338553 0.001951 -0.151409 1.477675 0.000001 0.000002 0.000000 -0.636368 -4.566775 -5.941267 0.000001 0.001920 -0.018694 0.002590 -0.174363 1.701720 -0.000000 0.000002 -0.000001 0.592284 7.856907 -5.549041 -0.000000 0.000002 -0.000009 0.005628 -0.257026 2.508951 0.000000 0.000000 -0.000001 1.630365 21.101543 -3.974348 0.000058 0.026005 -0.253785 0.005646 -0.257447 2.513095 -0.000000 0.000000 -0.000000 -1.013548 16.672500 26.313685 -65.971370 29.915303 82.713789 0.000041 62.177473 -0.000038 -8.098614 19.863594 -44.727217 -4.957091 22.491791 -22.374882 6.358373 -14.447609 -2.112221 -7.845702 8.561199 -11.387867 -0.000001 0.000001 0.000001 6.929600 22.348652 -15.505595 -0.000001 -0.000003 0.000007 0.000001 0.000006 -0.000038 -0.000000 0.000001 0.000000 3.558505 9.846320 -16.725491 -0.000001 0.000001 0.000006 0.000001 0.000003 -0.000047 0.000000 0.000005 0.000001 0.305680 -0.748104 -17.692714 -0.000001 0.000007 0.000010 -0.000000 -0.000002 -0.000031 0.000000 -0.000002 0.000000 -3.749119 -13.123718 -18.830951 -0.000000 -0.000011 0.000003 0.000001 0.000011 -0.000047 0.000000 0.000001 0.000001 -96.027583 56.492286 9.096199 98.337785 36.974276 16.922482 39.180728 -9.424870 -18.089066 -1.373899 0.000000 -0.000005 0.000002 -0.000001 -0.000000 42.249908 -4.628572 23.471405 84.909585 -18.312741 -0.771450 2.650805 1.931498 16.314197 -0.877375 -0.000011 0.000006 -0.000000 0.000001 -0.000003 
-17.919640 71.443924 2.497334 1.117237 37.005022 -120.802728 19.492136 27.111879 -8.936576 6.608869 9.188446 -4.575469 6.617020 9.097404 -4.803902 -0.395848 -3.892000 4.339556 10.657449 -20.992175 23.299428 0.000000 -0.000000 -0.000000 -5.119328 -8.335472 -0.655517 -22.684592 46.561977 -83.730777 0.000000 -101.392335 -0.000003 -47.145442 -21.056015 75.764112 -23.399349 -10.972210 9.908537 4.144128 9.482735 1.784346 -7.692729 -2.715817 12.526815 0.000001 -0.000001 -0.000000 -2.334837 -15.126258 -8.712655 0.000103 0.034704 -0.338550 0.001952 -0.151407 1.477674 -0.000001 0.000001 -0.000001 -0.635115 -4.567968 -5.930877 0.000000 0.001924 -0.018694 0.002590 -0.174366 1.701722 -0.000000 -0.000001 0.000000 0.589359 7.854083 -5.518535 -0.000000 -0.000001 -0.000012 0.005629 -0.257027 2.508953 -0.000000 -0.000000 -0.000000 1.630364 21.101538 -3.974347 0.000058 0.026007 -0.253786 0.005647 -0.257449 2.513096 -0.000000 0.000000 0.000000 -0.966832 16.498288 25.895532 -63.471309 28.977627 81.211946 -0.000035 64.341734 0.000022 -7.352245 18.969100 -45.404912 -4.957105 22.491820 -22.374860 6.358369 -14.447611 -2.112227 -7.845698 8.561202 -11.387876 -0.000000 0.000000 -0.000000 6.929591 22.348679 -15.505580 -0.000000 -0.000007 0.000006 0.000001 0.000001 -0.000039 -0.000000 0.000001 -0.000000 3.558504 9.846358 -16.725480 0.000001 0.000006 0.000005 0.000001 -0.000003 -0.000046 -0.000000 0.000002 0.000000 0.305684 -0.748061 -17.692705 -0.000002 0.000002 0.000012 0.000001 -0.000005 -0.000031 0.000000 -0.000001 -0.000000 -3.749118 -13.123698 -18.830943 -0.000001 -0.000001 0.000006 -0.000000 0.000007 -0.000046 0.000000 -0.000001 0.000000 -98.396135 57.979072 8.631777 98.610542 36.951501 18.071451 38.798528 -9.631948 -18.809270 -1.026671 0.000002 -0.000001 -0.000001 0.000000 0.000000 39.274383 -4.481343 23.952343 85.723122 -20.040234 -1.129875 0.709366 1.052089 15.914619 -1.091951 -0.000009 -0.000006 0.000001 -0.000000 0.000001 
-18.959618 69.974335 3.847065 -0.223879 36.111391 -116.891174 21.064476 28.295435 -12.151558 6.014190 8.916173 -4.487288 5.970859 8.855820 -4.733430 -0.819706 -3.781095 3.348677 9.793100 -21.787670 22.868904 0.000000 -0.000000 -0.000000 -8.235924 -8.096204 -1.226957 -17.975477 44.817055 -83.771655 0.000171 -100.557699 0.000170 -48.352081 -21.864166 75.873382 -23.436853 -11.031422 9.994606 4.144133 9.482735 1.784342 -7.692728 -2.715814 12.526811 -0.000004 0.000001 -0.000000 -2.334838 -15.126263 -8.712658 0.000102 0.034697 -0.338552 0.001952 -0.151413 1.477673 -0.000001 0.000002 0.000000 -0.633801 -4.569208 -5.920017 0.000000 0.001923 -0.018694 0.002590 -0.174367 1.701722 -0.000000 -0.000003 -0.000000 0.586303 7.851138 -5.486651 -0.000000 0.000001 -0.000007 0.005629 -0.257026 2.508951 0.000000 -0.000000 0.000000 1.630365 21.101542 -3.974349 0.000058 0.026006 -0.253785 0.005647 -0.257451 2.513096 -0.000000 -0.000001 -0.000000 -0.839441 16.052560 25.454643 -61.007086 28.521021 79.817755 -0.000082 66.886116 0.000067 -6.724614 17.750724 -46.338694 -4.957090 22.491799 -22.374880 6.358367 -14.447600 -2.112223 -7.845695 8.561186 -11.387880 -0.000000 0.000000 -0.000001 6.929595 22.348644 -15.505588 -0.000000 -0.000003 0.000007 0.000000 0.000006 -0.000039 -0.000001 -0.000001 -0.000000 3.558509 9.846327 -16.725485 -0.000000 -0.000007 0.000006 -0.000002 -0.000001 -0.000047 0.000001 -0.000001 0.000000 0.305684 -0.748093 -17.692717 0.000001 -0.000013 0.000009 0.000000 0.000002 -0.000031 0.000000 -0.000001 -0.000000 -3.749113 -13.123712 -18.830953 0.000001 0.000001 0.000003 -0.000000 0.000021 -0.000048 0.000000 -0.000002 0.000001 -101.252404 59.975611 8.216094 98.673134 37.250253 19.738487 38.166315 -9.834911 -19.749234 -0.619974 0.000000 0.000002 0.000000 0.000000 -0.000000 35.993014 -4.963005 24.417923 86.191619 -20.987040 -1.767695 -0.261967 1.126879 14.159165 -1.136038 0.000013 0.000015 -0.000001 0.000001 -0.000003 
